<svg xmlns="http://www.w3.org/2000/svg" viewBox="0 0 400 260" width="100%" height="100%" preserveAspectRatio="xMidYMid slice">
  <defs>
    <linearGradient id="g" x1="0" y1="0" x2="1" y2="1">
      <stop offset="0%" stop-color="oklch(0.97 0.025 235)"></stop>
      <stop offset="100%" stop-color="#fff"></stop>
    </linearGradient>
  </defs>
  <rect width="400" height="260" fill="url(#g)"></rect>
  
  
  <g transform="translate(140 70)">
    <path d="M0 0 q40 30 0 100 q-40 -70 0 -100z" fill="oklch(0.66 0.13 165)" opacity=".55"></path>
  </g>
  <g transform="translate(220 90)">
    <path d="M0 0 q40 30 0 100 q-40 -70 0 -100z" fill="oklch(0.55 0.14 240)" opacity=".4"></path>
  </g>
  
  <g transform="translate(190 130)">
    <path d="M0 0 c-12 -14 -28 2 -14 14 l14 14 l14 -14 c14 -12 -2 -28 -14 -14 z" fill="#fff"></path>
  </g>
  
  <circle cx="80" cy="180" r="4" fill="oklch(0.66 0.13 165)"></circle>
  <circle cx="320" cy="60" r="4" fill="oklch(0.55 0.14 240)"></circle>
  <circle cx="100" cy="60" r="3" fill="oklch(0.55 0.14 240)" opacity=".4"></circle>

</svg>