<svg xmlns="http://www.w3.org/2000/svg" viewBox="0 0 400 260" width="100%" height="100%" preserveAspectRatio="xMidYMid slice">
  <defs>
    <linearGradient id="g" x1="0" y1="0" x2="1" y2="1">
      <stop offset="0%" stop-color="oklch(0.92 0.06 75)"></stop>
      <stop offset="100%" stop-color="#fff"></stop>
    </linearGradient>
  </defs>
  <rect width="400" height="260" fill="url(#g)"></rect>
  
  
  <g transform="translate(280 80)">
    <circle cx="0" cy="0" r="34" fill="oklch(0.82 0.1 75)"></circle>
    <circle cx="0" cy="0" r="22" fill="#fff" opacity=".4"></circle>
    <line x1="40" y1="0" x2="54" y2="0" stroke="oklch(0.82 0.1 75)" stroke-width="3" stroke-linecap="round"></line><line x1="28.284271247461902" y1="28.2842712474619" x2="38.18376618407357" y2="38.18376618407356" stroke="oklch(0.82 0.1 75)" stroke-width="3" stroke-linecap="round"></line><line x1="2.4492935982947065e-15" y1="40" x2="3.3065463576978537e-15" y2="54" stroke="oklch(0.82 0.1 75)" stroke-width="3" stroke-linecap="round"></line><line x1="-28.2842712474619" y1="28.284271247461902" x2="-38.18376618407356" y2="38.18376618407357" stroke="oklch(0.82 0.1 75)" stroke-width="3" stroke-linecap="round"></line><line x1="-40" y1="4.898587196589413e-15" x2="-54" y2="6.6130927153957075e-15" stroke="oklch(0.82 0.1 75)" stroke-width="3" stroke-linecap="round"></line><line x1="-28.28427124746191" y1="-28.2842712474619" x2="-38.183766184073576" y2="-38.18376618407356" stroke="oklch(0.82 0.1 75)" stroke-width="3" stroke-linecap="round"></line><line x1="-7.347880794884118e-15" y1="-40" x2="-9.91963907309356e-15" y2="-54" stroke="oklch(0.82 0.1 75)" stroke-width="3" stroke-linecap="round"></line><line x1="28.284271247461895" y1="-28.28427124746191" x2="38.183766184073555" y2="-38.183766184073576" stroke="oklch(0.82 0.1 75)" stroke-width="3" stroke-linecap="round"></line>
  </g>
  
  <g transform="translate(70 80) rotate(-15)">
    <path d="M0 20 L18 0 H140 L122 20 Z" fill="oklch(0.55 0.13 165)"></path>
    <rect x="18" y="20" width="104" height="100" rx="4" fill="#fff" stroke="oklch(0.88 0.08 165)"></rect>
    <rect x="32" y="46" width="76" height="20" rx="2" fill="oklch(0.66 0.13 165)" opacity=".2"></rect>
    <text x="70" y="60" text-anchor="middle" font-family="sans-serif" font-size="14" font-weight="800" fill="oklch(0.55 0.13 165)">SPF50</text>
    <line x1="32" y1="78" x2="108" y2="78" stroke="oklch(0.88 0.08 165)" stroke-width="2"></line>
    <line x1="32" y1="88" x2="92" y2="88" stroke="oklch(0.88 0.08 165)" stroke-width="2"></line>
  </g>

</svg>