<svg xmlns="http://www.w3.org/2000/svg" viewBox="0 0 400 260" width="100%" height="100%" preserveAspectRatio="xMidYMid slice">
  <defs>
    <linearGradient id="g" x1="0" y1="0" x2="1" y2="1">
      <stop offset="0%" stop-color="oklch(0.97 0.025 235)"></stop>
      <stop offset="100%" stop-color="#fff"></stop>
    </linearGradient>
  </defs>
  <rect width="400" height="260" fill="url(#g)"></rect>
  
  
  <g transform="translate(60 60) rotate(-25)">
    <rect x="0" y="0" width="60" height="22" rx="11" fill="oklch(0.55 0.14 240)"></rect>
    <rect x="0" y="0" width="30" height="22" rx="11" fill="oklch(0.46 0.13 245)"></rect>
    <line x1="30" y1="2" x2="30" y2="20" stroke="#fff" stroke-width="0.8" opacity=".5"></line>
  </g>
  <g transform="translate(280 50) rotate(20)">
    <rect x="0" y="0" width="50" height="18" rx="9" fill="oklch(0.66 0.13 165)"></rect>
    <rect x="0" y="0" width="25" height="18" rx="9" fill="#fff"></rect>
  </g>
  <g transform="translate(90 180) rotate(15)">
    <rect x="0" y="0" width="46" height="16" rx="8" fill="oklch(0.55 0.13 165)"></rect>
    <rect x="23" y="0" width="23" height="16" rx="8" fill="oklch(0.88 0.08 165)"></rect>
  </g>
  
  <g transform="translate(180 90)">
    <rect x="6" y="0" width="56" height="14" rx="3" fill="oklch(0.46 0.13 245)"></rect>
    <rect x="0" y="14" width="68" height="100" rx="8" fill="#fff"></rect>
    <rect x="8" y="42" width="52" height="38" rx="3" fill="oklch(0.55 0.14 240)" opacity=".15"></rect>
    <rect x="14" y="52" width="40" height="3" rx="1.5" fill="oklch(0.55 0.14 240)"></rect>
    <rect x="14" y="60" width="32" height="3" rx="1.5" fill="oklch(0.55 0.14 240)" opacity=".5"></rect>
    <rect x="14" y="68" width="36" height="3" rx="1.5" fill="oklch(0.55 0.14 240)" opacity=".5"></rect>
    <circle cx="34" cy="28" r="6" fill="oklch(0.66 0.13 165)"></circle>
    <path d="M30 28 h8 M34 24 v8" stroke="#fff" stroke-width="2" stroke-linecap="round"></path>
  </g>

</svg>