<svg xmlns="http://www.w3.org/2000/svg" viewBox="0 0 400 260" width="100%" height="100%" preserveAspectRatio="xMidYMid slice">
  <defs>
    <linearGradient id="g" x1="0" y1="0" x2="1" y2="1">
      <stop offset="0%" stop-color="oklch(0.965 0.035 165)"></stop>
      <stop offset="100%" stop-color="#fff"></stop>
    </linearGradient>
  </defs>
  <rect width="400" height="260" fill="url(#g)"></rect>
  
  <g transform="translate(110 50)">
    
    <g transform="translate(0 110)">
      <rect x="0" y="0" width="180" height="40" rx="8" fill="#fff" stroke="oklch(0.85 0.07 235)"></rect>
      <path d="M40 0 q50 -10 100 0" fill="none" stroke="oklch(0.85 0.07 235)" stroke-width="2"></path>
      <path d="M40 40 q50 10 100 0" fill="none" stroke="oklch(0.85 0.07 235)" stroke-width="2"></path>
      <circle cx="90" cy="20" r="6" fill="oklch(0.55 0.14 240)" opacity=".4"></circle>
    </g>
    <g transform="translate(10 70)">
      <rect x="0" y="0" width="160" height="36" rx="8" fill="#fff" stroke="oklch(0.88 0.08 165)"></rect>
      <circle cx="80" cy="18" r="5" fill="oklch(0.66 0.13 165)" opacity=".5"></circle>
    </g>
    <g transform="translate(20 30)">
      <rect x="0" y="0" width="140" height="34" rx="8" fill="#fff" stroke="oklch(0.85 0.07 235)"></rect>
      <circle cx="70" cy="17" r="4" fill="oklch(0.55 0.14 240)" opacity=".5"></circle>
    </g>
    
    <g transform="translate(60 -10)">
      <circle cx="20" cy="20" r="20" fill="oklch(0.82 0.1 75)" opacity=".4"></circle>
      <circle cx="6" cy="6" r="6" fill="oklch(0.82 0.1 75)" opacity=".4"></circle>
      <circle cx="34" cy="6" r="6" fill="oklch(0.82 0.1 75)" opacity=".4"></circle>
      <circle cx="14" cy="20" r="2" fill="oklch(0.22 0.03 235)"></circle>
      <circle cx="26" cy="20" r="2" fill="oklch(0.22 0.03 235)"></circle>
      <path d="M14 28 q6 4 12 0" stroke="oklch(0.22 0.03 235)" stroke-width="1.5" fill="none" stroke-linecap="round"></path>
    </g>
  </g>

</svg>