<svg xmlns="http://www.w3.org/2000/svg" viewBox="0 0 400 260" width="100%" height="100%" preserveAspectRatio="xMidYMid slice">
  <defs>
    <linearGradient id="g" x1="0" y1="0" x2="1" y2="1">
      <stop offset="0%" stop-color="oklch(0.97 0.025 235)"></stop>
      <stop offset="100%" stop-color="#fff"></stop>
    </linearGradient>
  </defs>
  <rect width="400" height="260" fill="url(#g)"></rect>
  
  
  <g transform="translate(50 130) rotate(-10)">
    <rect x="0" y="0" width="14" height="22" rx="2" fill="oklch(0.46 0.13 245)"></rect>
    <path d="M14 0 L160 6 L160 16 L14 22 Z" fill="#fff" stroke="oklch(0.85 0.07 235)"></path>
    <text x="86" y="16" text-anchor="middle" font-family="sans-serif" font-size="9" font-weight="800" fill="oklch(0.55 0.14 240)">DENTAL</text>
    
    <path d="M0 11 q-12 0 -14 -8 q-2 -10 6 -8 q4 1 8 5" fill="oklch(0.66 0.13 165)"></path>
  </g>
  
  <g transform="translate(70 60) rotate(20)">
    <rect x="0" y="0" width="180" height="14" rx="6" fill="oklch(0.55 0.14 240)"></rect>
    <rect x="0" y="-4" width="40" height="22" rx="3" fill="oklch(0.46 0.13 245)"></rect>
    <line x1="4" y1="-4" x2="4" y2="-12" stroke="#fff" stroke-width="1.5"></line><line x1="8" y1="-4" x2="8" y2="-12" stroke="#fff" stroke-width="1.5"></line><line x1="12" y1="-4" x2="12" y2="-12" stroke="#fff" stroke-width="1.5"></line><line x1="16" y1="-4" x2="16" y2="-12" stroke="#fff" stroke-width="1.5"></line><line x1="20" y1="-4" x2="20" y2="-12" stroke="#fff" stroke-width="1.5"></line><line x1="24" y1="-4" x2="24" y2="-12" stroke="#fff" stroke-width="1.5"></line><line x1="28" y1="-4" x2="28" y2="-12" stroke="#fff" stroke-width="1.5"></line><line x1="32" y1="-4" x2="32" y2="-12" stroke="#fff" stroke-width="1.5"></line><line x1="36" y1="-4" x2="36" y2="-12" stroke="#fff" stroke-width="1.5"></line>
    <line x1="6" y1="-4" x2="6" y2="-10" stroke="oklch(0.88 0.08 165)" stroke-width="1.5"></line><line x1="10" y1="-4" x2="10" y2="-10" stroke="oklch(0.88 0.08 165)" stroke-width="1.5"></line><line x1="14" y1="-4" x2="14" y2="-10" stroke="oklch(0.88 0.08 165)" stroke-width="1.5"></line><line x1="18" y1="-4" x2="18" y2="-10" stroke="oklch(0.88 0.08 165)" stroke-width="1.5"></line><line x1="22" y1="-4" x2="22" y2="-10" stroke="oklch(0.88 0.08 165)" stroke-width="1.5"></line><line x1="26" y1="-4" x2="26" y2="-10" stroke="oklch(0.88 0.08 165)" stroke-width="1.5"></line><line x1="30" y1="-4" x2="30" y2="-10" stroke="oklch(0.88 0.08 165)" stroke-width="1.5"></line><line x1="34" y1="-4" x2="34" y2="-10" stroke="oklch(0.88 0.08 165)" stroke-width="1.5"></line><line x1="38" y1="-4" x2="38" y2="-10" stroke="oklch(0.88 0.08 165)" stroke-width="1.5"></line>
  </g>
  
  <path d="M310 60 q14 -14 28 0 q4 12 -2 28 q-6 14 -10 0 q-4 -10 -4 0 q-4 16 -10 0 q-6 -16 -2 -28 z" fill="#fff" stroke="oklch(0.85 0.07 235)"></path>

</svg>