<svg xmlns="http://www.w3.org/2000/svg" viewBox="0 0 400 260" width="100%" height="100%" preserveAspectRatio="xMidYMid slice">
  <defs>
    <linearGradient id="g" x1="0" y1="0" x2="1" y2="1">
      <stop offset="0%" stop-color="oklch(0.965 0.035 165)"></stop>
      <stop offset="100%" stop-color="#fff"></stop>
    </linearGradient>
  </defs>
  <rect width="400" height="260" fill="url(#g)"></rect>
  
  
  <g transform="translate(80 160)">
    <circle cx="0" cy="0" r="36" fill="oklch(0.82 0.1 75)"></circle>
    <circle cx="0" cy="0" r="28" fill="oklch(0.92 0.06 75)"></circle>
    <line x1="0" y1="0" x2="22" y2="0" stroke="oklch(0.82 0.1 75)" stroke-width="2"></line><line x1="0" y1="0" x2="15.556349186104047" y2="15.556349186104043" stroke="oklch(0.82 0.1 75)" stroke-width="2"></line><line x1="0" y1="0" x2="1.3471114790620886e-15" y2="22" stroke="oklch(0.82 0.1 75)" stroke-width="2"></line><line x1="0" y1="0" x2="-15.556349186104043" y2="15.556349186104047" stroke="oklch(0.82 0.1 75)" stroke-width="2"></line><line x1="0" y1="0" x2="-22" y2="2.6942229581241772e-15" stroke="oklch(0.82 0.1 75)" stroke-width="2"></line><line x1="0" y1="0" x2="-15.556349186104049" y2="-15.556349186104043" stroke="oklch(0.82 0.1 75)" stroke-width="2"></line><line x1="0" y1="0" x2="-4.0413344371862654e-15" y2="-22" stroke="oklch(0.82 0.1 75)" stroke-width="2"></line><line x1="0" y1="0" x2="15.556349186104041" y2="-15.556349186104049" stroke="oklch(0.82 0.1 75)" stroke-width="2"></line>
  </g>
  
  <g transform="translate(180 50)">
    <rect x="14" y="0" width="42" height="16" rx="3" fill="oklch(0.55 0.13 165)"></rect>
    <rect x="0" y="16" width="70" height="130" rx="10" fill="#fff" stroke="oklch(0.88 0.08 165)"></rect>
    <circle cx="35" cy="60" r="22" fill="oklch(0.66 0.13 165)" opacity=".15"></circle>
    <text x="35" y="68" text-anchor="middle" font-family="sans-serif" font-size="22" font-weight="800" fill="oklch(0.55 0.13 165)">C</text>
    <rect x="14" y="98" width="42" height="3" rx="1.5" fill="oklch(0.66 0.13 165)"></rect>
    <rect x="14" y="106" width="32" height="3" rx="1.5" fill="oklch(0.66 0.13 165)" opacity=".5"></rect>
  </g>
  
  <circle cx="290" cy="180" r="14" fill="oklch(0.82 0.1 75)"></circle>
  <circle cx="320" cy="160" r="10" fill="oklch(0.66 0.13 165)"></circle>
  <circle cx="310" cy="200" r="8" fill="oklch(0.55 0.14 240)" opacity=".7"></circle>

</svg>