<svg xmlns="http://www.w3.org/2000/svg" viewBox="0 0 400 260" width="100%" height="100%" preserveAspectRatio="xMidYMid slice">
  <defs>
    <linearGradient id="g" x1="0" y1="0" x2="1" y2="1">
      <stop offset="0%" stop-color="oklch(0.965 0.035 165)"></stop>
      <stop offset="100%" stop-color="#fff"></stop>
    </linearGradient>
  </defs>
  <rect width="400" height="260" fill="url(#g)"></rect>
  
  
  <g transform="translate(140 70)">
    <rect x="20" y="0" width="40" height="14" rx="3" fill="oklch(0.55 0.13 165)"></rect>
    <rect x="14" y="14" width="52" height="6" rx="2" fill="oklch(0.66 0.13 165)"></rect>
    <rect x="0" y="20" width="80" height="120" rx="14" fill="#fff" stroke="oklch(0.88 0.08 165)"></rect>
    <rect x="10" y="60" width="60" height="50" rx="4" fill="oklch(0.88 0.08 165)" opacity=".4"></rect>
    <rect x="18" y="74" width="44" height="3" rx="1.5" fill="oklch(0.66 0.13 165)"></rect>
    <rect x="18" y="84" width="32" height="2" rx="1" fill="oklch(0.66 0.13 165)" opacity=".6"></rect>
  </g>
  
  <g transform="translate(60 140)">
    <ellipse cx="30" cy="6" rx="30" ry="6" fill="oklch(0.46 0.13 245)"></ellipse>
    <rect x="0" y="6" width="60" height="50" rx="4" fill="#fff" stroke="oklch(0.85 0.07 235)"></rect>
    <ellipse cx="30" cy="6" rx="22" ry="3" fill="oklch(0.55 0.14 240)" opacity=".3"></ellipse>
  </g>
  
  <path d="M310 80 q-14 18 -14 30 a14 14 0 0 0 28 0 q0 -12 -14 -30 z" fill="oklch(0.66 0.13 165)" opacity=".7"></path>

</svg>