<svg xmlns="http://www.w3.org/2000/svg" viewBox="0 0 400 260" width="100%" height="100%" preserveAspectRatio="xMidYMid slice">
  <defs>
    <linearGradient id="g" x1="0" y1="0" x2="1" y2="1">
      <stop offset="0%" stop-color="oklch(0.965 0.035 165)"></stop>
      <stop offset="100%" stop-color="#fff"></stop>
    </linearGradient>
  </defs>
  <rect width="400" height="260" fill="url(#g)"></rect>
  
  
  <g transform="translate(200 130)">
    <rect x="-50" y="-14" width="100" height="28" rx="6" fill="oklch(0.66 0.13 165)"></rect>
    <rect x="-14" y="-50" width="28" height="100" rx="6" fill="oklch(0.66 0.13 165)"></rect>
    <rect x="-46" y="-10" width="92" height="20" rx="3" fill="oklch(0.55 0.13 165)" opacity=".25"></rect>
    <rect x="-10" y="-46" width="20" height="92" rx="3" fill="oklch(0.55 0.13 165)" opacity=".25"></rect>
  </g>
  
  <g transform="translate(70 70) rotate(35)">
    <rect x="0" y="0" width="80" height="26" rx="13" fill="oklch(0.92 0.06 75)"></rect>
    <rect x="26" y="4" width="28" height="18" rx="3" fill="oklch(0.82 0.1 75)" opacity=".4"></rect>
    <circle cx="30" cy="13" r="1" fill="oklch(0.82 0.1 75)"></circle><circle cx="34" cy="13" r="1" fill="oklch(0.82 0.1 75)"></circle><circle cx="38" cy="13" r="1" fill="oklch(0.82 0.1 75)"></circle><circle cx="42" cy="13" r="1" fill="oklch(0.82 0.1 75)"></circle><circle cx="46" cy="13" r="1" fill="oklch(0.82 0.1 75)"></circle><circle cx="50" cy="13" r="1" fill="oklch(0.82 0.1 75)"></circle>
  </g>
  
  <g transform="translate(310 200) rotate(-30)">
    <rect x="0" y="0" width="50" height="18" rx="9" fill="oklch(0.55 0.14 240)"></rect>
    <rect x="0" y="0" width="25" height="18" rx="9" fill="#fff"></rect>
  </g>

</svg>