<svg xmlns="http://www.w3.org/2000/svg" viewBox="0 0 400 260" width="100%" height="100%" preserveAspectRatio="xMidYMid slice">
  <defs>
    <linearGradient id="g" x1="0" y1="0" x2="1" y2="1">
      <stop offset="0%" stop-color="oklch(0.97 0.025 235)"></stop>
      <stop offset="100%" stop-color="#fff"></stop>
    </linearGradient>
  </defs>
  <rect width="400" height="260" fill="url(#g)"></rect>
  
  <g transform="translate(140 40)">
    <rect x="14" y="0" width="92" height="16" rx="4" fill="oklch(0.46 0.13 245)"></rect>
    <rect x="6" y="16" width="108" height="6" rx="2" fill="oklch(0.55 0.14 240)"></rect>
    <path d="M0 22 L120 22 L114 180 Q60 196 6 180 Z" fill="#fff" stroke="oklch(0.85 0.07 235)"></path>
    
    <path d="M14 90 Q60 84 106 90 L110 174 Q60 188 10 174 Z" fill="oklch(0.66 0.13 165)" opacity=".25"></path>
    
    <line x1="14" y1="60" x2="30" y2="60" stroke="oklch(0.85 0.07 235)" stroke-width="2"></line>
    <line x1="14" y1="80" x2="30" y2="80" stroke="oklch(0.85 0.07 235)" stroke-width="2"></line>
    <line x1="14" y1="100" x2="30" y2="100" stroke="oklch(0.85 0.07 235)" stroke-width="2"></line>
    <line x1="14" y1="120" x2="30" y2="120" stroke="oklch(0.85 0.07 235)" stroke-width="2"></line>
    <line x1="14" y1="140" x2="30" y2="140" stroke="oklch(0.85 0.07 235)" stroke-width="2"></line>
    <text x="78" y="150" text-anchor="middle" font-family="sans-serif" font-size="22" font-weight="800" fill="oklch(0.46 0.13 245)">PRO</text>
  </g>

</svg>