<svg xmlns="http://www.w3.org/2000/svg" viewBox="0 0 400 260" width="100%" height="100%" preserveAspectRatio="xMidYMid slice">
  <defs>
    <linearGradient id="g" x1="0" y1="0" x2="1" y2="1">
      <stop offset="0%" stop-color="oklch(0.965 0.035 165)"></stop>
      <stop offset="100%" stop-color="#fff"></stop>
    </linearGradient>
  </defs>
  <rect width="400" height="260" fill="url(#g)"></rect>
  
  
  <g transform="translate(150 50)">
    <ellipse cx="35" cy="0" rx="14" ry="10" fill="oklch(0.82 0.1 75)"></ellipse>
    <rect x="20" y="6" width="30" height="14" rx="6" fill="oklch(0.92 0.06 75)"></rect>
    <rect x="10" y="20" width="50" height="10" rx="3" fill="oklch(0.55 0.13 165)"></rect>
    <rect x="0" y="30" width="70" height="130" rx="14" fill="#fff" stroke="oklch(0.88 0.08 165)"></rect>
    <path d="M4 90 Q35 84 66 90 L66 154 Q35 162 4 154 Z" fill="oklch(0.66 0.13 165)" opacity=".18"></path>
    <line x1="10" y1="70" x2="20" y2="70" stroke="oklch(0.88 0.08 165)" stroke-width="2"></line>
    <line x1="10" y1="90" x2="20" y2="90" stroke="oklch(0.88 0.08 165)" stroke-width="2"></line>
    <line x1="10" y1="110" x2="20" y2="110" stroke="oklch(0.88 0.08 165)" stroke-width="2"></line>
    <line x1="10" y1="130" x2="20" y2="130" stroke="oklch(0.88 0.08 165)" stroke-width="2"></line>
    
    <circle cx="35" cy="110" r="14" fill="oklch(0.82 0.1 75)" opacity=".5"></circle>
    <circle cx="30" cy="108" r="2" fill="oklch(0.22 0.03 235)"></circle>
    <circle cx="40" cy="108" r="2" fill="oklch(0.22 0.03 235)"></circle>
    <path d="M30 116 q5 4 10 0" stroke="oklch(0.22 0.03 235)" stroke-width="1.5" fill="none" stroke-linecap="round"></path>
  </g>
  
  <path d="M70 90 c-12 -16 -32 0 -16 14 l16 16 l16 -16 c16 -14 -4 -30 -16 -14 z" fill="oklch(0.85 0.08 25)"></path>

</svg>