<svg xmlns="http://www.w3.org/2000/svg" viewBox="0 0 480 480" width="100%" height="100%" preserveAspectRatio="xMidYMid meet">
  <defs>
    <linearGradient id="hg" x1="0" y1="0" x2="1" y2="1">
      <stop offset="0%" stop-color="oklch(0.85 0.07 235)" stop-opacity=".4"></stop>
      <stop offset="100%" stop-color="oklch(0.88 0.08 165)" stop-opacity=".5"></stop>
    </linearGradient>
    <radialGradient id="hr" cx="50%" cy="40%">
      <stop offset="0%" stop-color="#fff"></stop>
      <stop offset="100%" stop-color="oklch(0.97 0.025 235)"></stop>
    </radialGradient>
  </defs>
  
  <circle cx="240" cy="240" r="200" fill="url(#hr)"></circle>
  <circle cx="240" cy="240" r="200" fill="url(#hg)" opacity=".6"></circle>

  
  <g transform="translate(240 280)">
    <ellipse cx="0" cy="40" rx="110" ry="14" fill="oklch(0.22 0.03 235)" opacity=".06"></ellipse>
    
    <path d="M-100 -30 L-80 50 Q0 70 80 50 L100 -30 Z" fill="#fff" stroke="oklch(0.85 0.07 235)" stroke-width="2"></path>
    <ellipse cx="0" cy="-30" rx="100" ry="18" fill="oklch(0.97 0.025 235)" stroke="oklch(0.85 0.07 235)" stroke-width="2"></ellipse>
    <ellipse cx="0" cy="-30" rx="86" ry="12" fill="oklch(0.55 0.14 240)" opacity=".1"></ellipse>
    
    <g transform="translate(20 -90) rotate(20)">
      <rect x="-8" y="0" width="16" height="80" rx="4" fill="oklch(0.55 0.13 165)"></rect>
      <ellipse cx="0" cy="80" rx="14" ry="10" fill="oklch(0.66 0.13 165)"></ellipse>
      <rect x="-8" y="0" width="16" height="8" rx="3" fill="oklch(0.66 0.13 165)"></rect>
    </g>
    
    <g transform="translate(-30 -28)">
      <path d="M0 0 q-6 -10 0 -20 q6 10 0 20" fill="oklch(0.66 0.13 165)"></path>
    </g>
    <g transform="translate(-12 -32)">
      <path d="M0 0 q-5 -8 0 -16 q5 8 0 16" fill="oklch(0.55 0.13 165)"></path>
    </g>
    <g transform="translate(40 -30)">
      <path d="M0 0 q-5 -8 0 -16 q5 8 0 16" fill="oklch(0.66 0.13 165)"></path>
    </g>
  </g>

  
  <g transform="translate(110 130) rotate(-25)">
    <rect x="-30" y="-10" width="60" height="20" rx="10" fill="oklch(0.55 0.14 240)"></rect>
    <rect x="-30" y="-10" width="30" height="20" rx="10" fill="oklch(0.46 0.13 245)"></rect>
    <line x1="0" y1="-8" x2="0" y2="8" stroke="#fff" stroke-width="1" opacity=".5"></line>
  </g>

  
  <g transform="translate(370 140) rotate(15)">
    <rect x="-22" y="-7" width="44" height="14" rx="7" fill="oklch(0.66 0.13 165)"></rect>
    <rect x="-22" y="-7" width="22" height="14" rx="7" fill="#fff"></rect>
  </g>

  
  <g transform="translate(90 360) rotate(-10)">
    <path d="M0 0 q30 -16 50 -50 q-2 40 -30 60 q-22 6 -20 -10z" fill="oklch(0.66 0.13 165)" opacity=".5"></path>
  </g>

  
  <g stroke="oklch(0.55 0.14 240)" stroke-width="3" stroke-linecap="round" opacity=".5">
    <line x1="400" y1="280" x2="400" y2="296"></line>
    <line x1="392" y1="288" x2="408" y2="288"></line>
  </g>
  <g stroke="oklch(0.66 0.13 165)" stroke-width="3" stroke-linecap="round" opacity=".6">
    <line x1="80" y1="220" x2="80" y2="236"></line>
    <line x1="72" y1="228" x2="88" y2="228"></line>
  </g>

  
  <g transform="translate(380 360)">
    <path d="M0 0 c-14 -18 -34 2 -16 18 l16 18 l16 -18 c18 -16 -2 -36 -16 -18 z" fill="oklch(0.66 0.13 165)" opacity=".4"></path>
  </g>
</svg>